<?xml version="1.0" encoding="utf-8"?>
<!-- Generator: Adobe Illustrator 22.1.0, SVG Export Plug-In . SVG Version: 6.00 Build 0)  -->
<svg version="1.1" id="i-backwards" xmlns="http://www.w3.org/2000/svg" xmlns:xlink="http://www.w3.org/1999/xlink" x="0px"
	 y="0px" viewBox="0 0 32 32" style="enable-background:new 0 0 32 32;" xml:space="preserve">
<g>
	<path d="M30,31c-0.3,0-0.5-0.1-0.7-0.3L17,18.4V30c0,0.4-0.2,0.8-0.6,0.9c-0.4,0.2-0.8,0.1-1.1-0.2l-14-14c-0.4-0.4-0.4-1,0-1.4
		l14-14C15.6,1,16,0.9,16.4,1.1C16.8,1.2,17,1.6,17,2v11.6L29.3,1.3C29.6,1,30,0.9,30.4,1.1C30.8,1.2,31,1.6,31,2v28
		c0,0.4-0.2,0.8-0.6,0.9C30.3,31,30.1,31,30,31z M17.4,16L29,27.6V4.4L17.4,16z M3.4,16L15,27.6V4.4L3.4,16z"/>
</g>
</svg>
