<?xml version="1.0" encoding="utf-8"?>
<!-- Generator: Adobe Illustrator 22.1.0, SVG Export Plug-In . SVG Version: 6.00 Build 0)  -->
<svg version="1.1" id="i-ban" xmlns="http://www.w3.org/2000/svg" xmlns:xlink="http://www.w3.org/1999/xlink" x="0px" y="0px"
	 viewBox="0 0 32 32" style="enable-background:new 0 0 32 32;" xml:space="preserve">
<g>
	<g id="arrow">
		<path d="M16,31C7.7,31,1,24.3,1,16C1,7.7,7.7,1,16,1c8.3,0,15,6.7,15,15C31,24.3,24.3,31,16,31z M16,3C8.8,3,3,8.8,3,16
			c0,7.2,5.8,13,13,13c7.2,0,13-5.8,13-13C29,8.8,23.2,3,16,3z"/>
	</g>
	<g id="Circle">
		<path d="M26,27c-0.3,0-0.5-0.1-0.7-0.3l-20-20c-0.4-0.4-0.4-1,0-1.4s1-0.4,1.4,0l20,20c0.4,0.4,0.4,1,0,1.4
			C26.5,26.9,26.3,27,26,27z"/>
	</g>
</g>
</svg>
