<?xml version="1.0" encoding="utf-8"?>
<!-- Generator: Adobe Illustrator 22.1.0, SVG Export Plug-In . SVG Version: 6.00 Build 0)  -->
<svg version="1.1" id="i-clock" xmlns="http://www.w3.org/2000/svg" xmlns:xlink="http://www.w3.org/1999/xlink" x="0px" y="0px"
	 viewBox="0 0 32 32" style="enable-background:new 0 0 32 32;" xml:space="preserve">
<g>
	<path d="M16,31C7.7,31,1,24.3,1,16C1,7.7,7.7,1,16,1c8.3,0,15,6.7,15,15C31,24.3,24.3,31,16,31z M16,3C8.8,3,3,8.8,3,16
		c0,7.2,5.8,13,13,13c7.2,0,13-5.8,13-13C29,8.8,23.2,3,16,3z"/>
</g>
<g>
	<path d="M20,21c-0.3,0-0.5-0.1-0.7-0.3l-4-4C15.1,16.5,15,16.3,15,16V8c0-0.6,0.4-1,1-1s1,0.4,1,1v7.6l3.7,3.7c0.4,0.4,0.4,1,0,1.4
		C20.5,20.9,20.3,21,20,21z"/>
</g>
</svg>
