<?xml version="1.0" encoding="utf-8"?>
<!-- Generator: Adobe Illustrator 22.1.0, SVG Export Plug-In . SVG Version: 6.00 Build 0)  -->
<svg version="1.1" id="i-close" xmlns="http://www.w3.org/2000/svg" xmlns:xlink="http://www.w3.org/1999/xlink" x="0px" y="0px"
	 viewBox="0 0 32 32" style="enable-background:new 0 0 32 32;" xml:space="preserve">
<g>
	<path d="M30,31c-0.3,0-0.5-0.1-0.7-0.3L16,17.4L2.7,30.7c-0.4,0.4-1,0.4-1.4,0s-0.4-1,0-1.4L14.6,16L1.3,2.7c-0.4-0.4-0.4-1,0-1.4
		s1-0.4,1.4,0L16,14.6L29.3,1.3c0.4-0.4,1-0.4,1.4,0s0.4,1,0,1.4L17.4,16l13.3,13.3c0.4,0.4,0.4,1,0,1.4C30.5,30.9,30.3,31,30,31z"
		/>
</g>
</svg>
