<?xml version="1.0" encoding="utf-8"?>
<!-- Generator: Adobe Illustrator 22.1.0, SVG Export Plug-In . SVG Version: 6.00 Build 0)  -->
<svg version="1.1" id="i-ellipsis-vertical" xmlns="http://www.w3.org/2000/svg" xmlns:xlink="http://www.w3.org/1999/xlink"
	 x="0px" y="0px" viewBox="0 0 32 32" style="enable-background:new 0 0 32 32;" xml:space="preserve">
<g>
	<path d="M16,10c-1.7,0-3-1.3-3-3s1.3-3,3-3s3,1.3,3,3S17.7,10,16,10z M16,6c-0.6,0-1,0.4-1,1s0.4,1,1,1s1-0.4,1-1S16.6,6,16,6z"/>
</g>
<g>
	<path d="M16,19c-1.7,0-3-1.3-3-3s1.3-3,3-3s3,1.3,3,3S17.7,19,16,19z M16,15c-0.6,0-1,0.4-1,1s0.4,1,1,1s1-0.4,1-1S16.6,15,16,15z"
		/>
</g>
<g>
	<path d="M16,28c-1.7,0-3-1.3-3-3s1.3-3,3-3s3,1.3,3,3S17.7,28,16,28z M16,24c-0.6,0-1,0.4-1,1s0.4,1,1,1s1-0.4,1-1S16.6,24,16,24z"
		/>
</g>
</svg>
