<?xml version="1.0" encoding="utf-8"?>
<!-- Generator: Adobe Illustrator 22.1.0, SVG Export Plug-In . SVG Version: 6.00 Build 0)  -->
<svg version="1.1" id="i-eye" xmlns="http://www.w3.org/2000/svg" xmlns:xlink="http://www.w3.org/1999/xlink" x="0px" y="0px"
	 viewBox="0 0 32 32" style="enable-background:new 0 0 32 32;" xml:space="preserve">
<g>
	<circle cx="17" cy="15" r="2"/>
</g>
<g>
	<path d="M16,23c-3.9,0-7-3.1-7-7c0-3.9,3.1-7,7-7c3.9,0,7,3.1,7,7C23,19.9,19.9,23,16,23z M16,11c-2.8,0-5,2.2-5,5s2.2,5,5,5
		s5-2.2,5-5S18.8,11,16,11z"/>
</g>
<g>
	<path d="M16,27C6.5,27,1.3,16.9,1.1,16.4c-0.1-0.3-0.1-0.6,0-0.9C1.3,15.1,6.5,5,16,5s14.7,10.1,14.9,10.6c0.1,0.3,0.1,0.6,0,0.9
		C30.7,16.9,25.5,27,16,27z M3.1,16c1.1,1.9,5.6,9,12.9,9s11.8-7.1,12.9-9c-1.1-1.9-5.6-9-12.9-9S4.2,14.1,3.1,16z"/>
</g>
</svg>
