<?xml version="1.0" encoding="utf-8"?>
<!-- Generator: Adobe Illustrator 22.1.0, SVG Export Plug-In . SVG Version: 6.00 Build 0)  -->
<svg version="1.1" id="i-feed" xmlns="http://www.w3.org/2000/svg" xmlns:xlink="http://www.w3.org/1999/xlink" x="0px" y="0px"
	 viewBox="0 0 32 32" style="enable-background:new 0 0 32 32;" xml:space="preserve">
<g>
	<circle cx="6" cy="26" r="2"/>
	<path d="M6,29c-1.7,0-3-1.3-3-3s1.3-3,3-3s3,1.3,3,3S7.7,29,6,29z M6,25c-0.6,0-1,0.4-1,1s0.4,1,1,1s1-0.4,1-1S6.6,25,6,25z"/>
</g>
<g>
	<path d="M26,29c-0.6,0-1-0.4-1-1C25,15.6,16.4,7,4,7C3.4,7,3,6.6,3,6s0.4-1,1-1c13.5,0,23,9.5,23,23C27,28.6,26.6,29,26,29z M17,29
		c-0.6,0-1-0.4-1-1c0-6.4-5.6-12-12-12c-0.6,0-1-0.4-1-1s0.4-1,1-1c7.6,0,14,6.4,14,14C18,28.6,17.6,29,17,29z"/>
</g>
</svg>
