<?xml version="1.0" encoding="utf-8"?>
<!-- Generator: Adobe Illustrator 22.1.0, SVG Export Plug-In . SVG Version: 6.00 Build 0)  -->
<svg version="1.1" id="i-filter" xmlns="http://www.w3.org/2000/svg" xmlns:xlink="http://www.w3.org/1999/xlink" x="0px" y="0px"
	 viewBox="0 0 32 32" style="enable-background:new 0 0 32 32;" xml:space="preserve">
<g>
	<path d="M13,31c-0.2,0-0.4,0-0.5-0.1C12.2,30.7,12,30.3,12,30V18.4L1.2,5.6C1,5.4,1,5.1,1,4.8c0.1-0.3,0.3-0.6,0.5-0.7
		C1.7,4,5.9,2,16,2c10.1,0,14.3,2,14.4,2.1c0.3,0.1,0.5,0.4,0.5,0.7c0.1,0.3,0,0.6-0.2,0.8L20,18.4V27c0,0.4-0.2,0.7-0.6,0.9l-6,3
		C13.3,31,13.2,31,13,31z M3.7,5.4l10.1,11.9c0.2,0.2,0.2,0.4,0.2,0.6v10.4l4-2V18c0-0.2,0.1-0.5,0.2-0.6L28.3,5.4
		C26.5,4.9,22.6,4,16,4C9.4,4,5.5,4.9,3.7,5.4z"/>
</g>
</svg>
