<?xml version="1.0" encoding="utf-8"?>
<!-- Generator: Adobe Illustrator 22.1.0, SVG Export Plug-In . SVG Version: 6.00 Build 0)  -->
<svg version="1.1" id="i-folder" xmlns="http://www.w3.org/2000/svg" xmlns:xlink="http://www.w3.org/1999/xlink" x="0px" y="0px"
	 viewBox="0 0 32 32" style="enable-background:new 0 0 32 32;" xml:space="preserve">
<g>
	<path d="M30,27H2c-0.6,0-1-0.4-1-1V4c0-0.6,0.4-1,1-1h8c0.2,0,0.4,0.1,0.6,0.2L14.3,6H30c0.6,0,1,0.4,1,1v19C31,26.6,30.6,27,30,27
		z M3,25h26V13H3V25z M3,11h26V8H14c-0.2,0-0.4-0.1-0.6-0.2L9.7,5H3V11z"/>
</g>
</svg>
