<?xml version="1.0" encoding="utf-8"?>
<!-- Generator: Adobe Illustrator 22.1.0, SVG Export Plug-In . SVG Version: 6.00 Build 0)  -->
<svg version="1.1" id="i-menu" xmlns="http://www.w3.org/2000/svg" xmlns:xlink="http://www.w3.org/1999/xlink" x="0px" y="0px"
	 viewBox="0 0 32 32" style="enable-background:new 0 0 32 32;" xml:space="preserve">
<style type="text/css">
	.st0{fill:#FFFFFF;stroke:#000000;stroke-miterlimit:10;}
</style>
<g>
	<path class="st0" d="M28,25H4c-0.6,0-1-0.4-1-1s0.4-1,1-1h24c0.6,0,1,0.4,1,1S28.6,25,28,25z M28,17H4c-0.6,0-1-0.4-1-1s0.4-1,1-1
		h24c0.6,0,1,0.4,1,1S28.6,17,28,17z M28,9H4C3.4,9,3,8.6,3,8s0.4-1,1-1h24c0.6,0,1,0.4,1,1S28.6,9,28,9z"/>
</g>
</svg>
