<?xml version="1.0" encoding="utf-8"?>
<!-- Generator: Adobe Illustrator 22.1.0, SVG Export Plug-In . SVG Version: 6.00 Build 0)  -->
<svg version="1.1" id="i-microphone" xmlns="http://www.w3.org/2000/svg" xmlns:xlink="http://www.w3.org/1999/xlink" x="0px"
	 y="0px" viewBox="0 0 32 32" style="enable-background:new 0 0 32 32;" xml:space="preserve">
<g>
	<path d="M19,30h-6c-0.6,0-1-0.4-1-1s0.4-1,1-1h2v-3c-7.9-0.6-8-7.9-8-8c0-0.6,0.4-1,1-1c0.6,0,1,0.4,1,1c0,0.6,0.2,6,7,6
		c6.9,0,7-5.8,7-6c0-0.6,0.4-1,1-1s1,0.4,1,1c0,0.1-0.1,7.4-8,8v3h2c0.6,0,1,0.4,1,1S19.6,30,19,30z M9,17L9,17L9,17z M16,21
		c-4,0-5-3.3-5-5V6c0-1.7,1-5,5-5s5,3.3,5,5v10C21,17.7,20,21,16,21z M16,3c-2.8,0-3,2.5-3,3v10c0,0.5,0.2,3,3,3c2.8,0,3-2.5,3-3V6
		C19,5.5,18.8,3,16,3z"/>
</g>
</svg>
