<?xml version="1.0" encoding="utf-8"?>
<!-- Generator: Adobe Illustrator 22.1.0, SVG Export Plug-In . SVG Version: 6.00 Build 0)  -->
<svg version="1.1" id="i-mobile" xmlns="http://www.w3.org/2000/svg" xmlns:xlink="http://www.w3.org/1999/xlink" x="0px" y="0px"
	 viewBox="0 0 32 32" style="enable-background:new 0 0 32 32;" xml:space="preserve">
<g>
	<path d="M21,31H11c-1.5,0-3-1.5-3-3V4c0-1.5,1.5-3,3-3h10c1.5,0,3,1.5,3,3v24C24,29.5,22.5,31,21,31z M10,28c0,0.4,0.6,1,1,1h10
		c0.4,0,1-0.6,1-1H10z M10,26h12V6H10V26z M10,4h12c0-0.4-0.6-1-1-1H11C10.6,3,10,3.6,10,4z"/>
</g>
</svg>
