<?xml version="1.0" encoding="utf-8"?>
<!-- Generator: Adobe Illustrator 22.1.0, SVG Export Plug-In . SVG Version: 6.00 Build 0)  -->
<svg version="1.1" id="i-options" xmlns="http://www.w3.org/2000/svg" xmlns:xlink="http://www.w3.org/1999/xlink" x="0px" y="0px"
	 viewBox="0 0 32 32" style="enable-background:new 0 0 32 32;" xml:space="preserve">
<g>
	<path d="M20,30c-0.6,0-1-0.4-1-1v-2H4c-0.6,0-1-0.4-1-1s0.4-1,1-1h15v-2c0-0.6,0.4-1,1-1s1,0.4,1,1v2h7c0.6,0,1,0.4,1,1s-0.4,1-1,1
		h-7v2C21,29.6,20.6,30,20,30z M8,20c-0.6,0-1-0.4-1-1v-2H4c-0.6,0-1-0.4-1-1s0.4-1,1-1h3v-2c0-0.6,0.4-1,1-1s1,0.4,1,1v2h19
		c0.6,0,1,0.4,1,1s-0.4,1-1,1H9v2C9,19.6,8.6,20,8,20z M24,10c-0.6,0-1-0.4-1-1V7H4C3.4,7,3,6.6,3,6s0.4-1,1-1h19V3c0-0.6,0.4-1,1-1
		s1,0.4,1,1v2h3c0.6,0,1,0.4,1,1s-0.4,1-1,1h-3v2C25,9.6,24.6,10,24,10z"/>
</g>
</svg>
