<?xml version="1.0" encoding="utf-8"?>
<!-- Generator: Adobe Illustrator 22.1.0, SVG Export Plug-In . SVG Version: 6.00 Build 0)  -->
<svg version="1.1" id="i-photo" xmlns="http://www.w3.org/2000/svg" xmlns:xlink="http://www.w3.org/1999/xlink" x="0px" y="0px"
	 viewBox="0 0 32 32" style="enable-background:new 0 0 32 32;" xml:space="preserve">
<g>
	<path d="M30,31H2c-0.6,0-1-0.4-1-1V2c0-0.6,0.4-1,1-1h28c0.6,0,1,0.4,1,1v28C31,30.6,30.6,31,30,31z M3,29h26v-6.6l-7-7L17.4,20
		l3.3,3.3c0.4,0.4,0.4,1,0,1.4s-1,0.4-1.4,0L12,17.4l-9,9V29z M3,3v20.6l8.3-8.3c0.4-0.4,1-0.4,1.4,0l3.3,3.3l5.3-5.3
		c0.4-0.4,1-0.4,1.4,0l6.3,6.3V3H3z"/>
</g>
<g>
	<path d="M10,13c-2.2,0-4-1.8-4-4s1.8-4,4-4s4,1.8,4,4S12.2,13,10,13z M10,7C8.9,7,8,7.9,8,9s0.9,2,2,2s2-0.9,2-2S11.1,7,10,7z"/>
</g>
</svg>
