<?xml version="1.0" encoding="utf-8"?>
<!-- Generator: Adobe Illustrator 22.1.0, SVG Export Plug-In . SVG Version: 6.00 Build 0)  -->
<svg version="1.1" id="i-reload" xmlns="http://www.w3.org/2000/svg" xmlns:xlink="http://www.w3.org/1999/xlink" x="0px" y="0px"
	 viewBox="0 0 32 32" style="enable-background:new 0 0 32 32;" xml:space="preserve">
<g>
	<path d="M16,30C7.6,30,2,22.8,2,16C2,9.2,7.6,2,16,2c4.4,0,8,2.1,10.3,4.6L27,1.9c0.1-0.5,0.6-0.9,1.1-0.8c0.5,0.1,0.9,0.6,0.8,1.1
		l-1,7c0,0,0,0,0,0c0,0,0,0,0,0c0,0.1,0,0.1-0.1,0.2c-0.1,0.2-0.2,0.3-0.3,0.4c0,0-0.1,0.1-0.1,0.1c-0.1,0.1-0.2,0.1-0.3,0.1l-7,1
		c-0.5,0.1-1.1-0.3-1.1-0.8c-0.1-0.5,0.3-1.1,0.8-1.1l5.3-0.8C23.2,6.1,20,4,16,4C8.8,4,4,10.2,4,16c0,5.8,4.8,12,12,12
		c7.2,0,12-6.2,12-12c0-0.6,0.4-1,1-1s1,0.4,1,1C30,22.8,24.4,30,16,30z"/>
</g>
</svg>
