<?xml version="1.0" encoding="utf-8"?>
<!-- Generator: Adobe Illustrator 22.1.0, SVG Export Plug-In . SVG Version: 6.00 Build 0)  -->
<svg version="1.1" id="i-reply" xmlns="http://www.w3.org/2000/svg" xmlns:xlink="http://www.w3.org/1999/xlink" x="0px" y="0px"
	 viewBox="0 0 32 32" style="enable-background:new 0 0 32 32;" xml:space="preserve">
<g>
	<path d="M30,27c-0.6,0-1-0.4-1-1c0-7.4-3.6-11-11-11H5.2l5.5,6.3c0.4,0.4,0.3,1-0.1,1.4c-0.4,0.4-1,0.3-1.4-0.1l-7-8
		C2.1,14.5,2,14.3,2,14s0.1-0.5,0.3-0.7l7-8c0.4-0.4,1-0.5,1.4-0.1c0.4,0.4,0.5,1,0.1,1.4L5.2,13H18c8.5,0,13,4.5,13,13
		C31,26.6,30.6,27,30,27z"/>
</g>
</svg>
