<?xml version="1.0" encoding="utf-8"?>
<!-- Generator: Adobe Illustrator 22.1.0, SVG Export Plug-In . SVG Version: 6.00 Build 0)  -->
<svg version="1.1" id="i-zoom-in" xmlns="http://www.w3.org/2000/svg" xmlns:xlink="http://www.w3.org/1999/xlink" x="0px" y="0px"
	 viewBox="0 0 32 32" style="enable-background:new 0 0 32 32;" xml:space="preserve">
<g>
	<path d="M14,27C6.8,27,1,21.2,1,14C1,6.8,6.8,1,14,1c7.2,0,13,5.8,13,13C27,21.2,21.2,27,14,27z M14,3C7.9,3,3,7.9,3,14
		s4.9,11,11,11s11-4.9,11-11S20.1,3,14,3z"/>
</g>
<g>
	<path d="M30,31c-0.3,0-0.5-0.1-0.7-0.3l-7-7c-0.4-0.4-0.4-1,0-1.4s1-0.4,1.4,0l7,7c0.4,0.4,0.4,1,0,1.4C30.5,30.9,30.3,31,30,31z"
		/>
</g>
<g>
	<path d="M14,19c-0.6,0-1-0.4-1-1v-3h-3c-0.6,0-1-0.4-1-1s0.4-1,1-1h3v-3c0-0.6,0.4-1,1-1s1,0.4,1,1v3h3c0.6,0,1,0.4,1,1s-0.4,1-1,1
		h-3v3C15,18.6,14.6,19,14,19z"/>
</g>
</svg>
